<mxfile host="app.diagrams.net" modified="2024-04-09T10:58:29.290Z" agent="Mozilla/5.0 (Windows NT 10.0; Win64; x64) AppleWebKit/537.36 (KHTML, like Gecko) Chrome/106.0.0.0 Safari/537.36 Edg/106.0.1370.34" version="24.2.3" etag="vUpG5RIZp76UYeyHLws1" type="github">
  <diagram name="Page-1" id="y7DoGvvKXWcodqVYLnVu">
    <mxGraphModel>
      <root>
        <mxCell id="0" />
        <mxCell id="1" parent="0" />
      </root>
    </mxGraphModel>
  </diagram>
</mxfile>
